/* XPM */
static char *rcp81122904025953867[] = {
/* columns rows colors chars-per-pixel */
"64 64 251 2 ",
"   c #2C1915",
".  c #391B17",
"X  c #3A221A",
"o  c #23231A",
"O  c #3A2724",
"+  c #36322C",
"@  c #451D1C",
"#  c #4D1D1C",
"$  c #461B17",
"%  c #531D1C",
"&  c #5B1C1A",
"*  c #44231C",
"=  c #4C231D",
"-  c #472315",
";  c #5B241D",
":  c #55241D",
">  c #67271C",
",  c #75281D",
"<  c #7B3117",
"1  c #481C21",
"2  c #591E23",
"3  c #671F23",
"4  c #452422",
"5  c #4C2423",
"6  c #482A28",
"7  c #542323",
"8  c #5B2424",
"9  c #5C2A25",
"0  c #5D252A",
"q  c #5D2B2B",
"w  c #552928",
"e  c #493734",
"r  c #542F30",
"t  c #632424",
"y  c #6B2624",
"u  c #642A24",
"i  c #6C2A24",
"p  c #62252A",
"a  c #6C252A",
"s  c #642B2B",
"d  c #6C2C2B",
"f  c #742C25",
"g  c #7B2C25",
"h  c #74252A",
"j  c #732C2B",
"k  c #7B2D2B",
"l  c #762624",
"z  c #64332B",
"x  c #6C322C",
"c  c #693528",
"v  c #733225",
"b  c #7D3324",
"n  c #74322C",
"m  c #7C332D",
"M  c #7D3A2C",
"N  c #773A29",
"B  c #6C2D33",
"V  c #682B32",
"C  c #742E32",
"Z  c #7C2E32",
"A  c #792A36",
"S  c #6D3332",
"D  c #693536",
"F  c #743332",
"G  c #7B3433",
"H  c #743932",
"J  c #7D3A33",
"K  c #74363B",
"L  c #7C363A",
"P  c #733A3A",
"I  c #7A3B3A",
"U  c #494338",
"Y  c #774238",
"T  c #74472F",
"R  c #753B42",
"E  c #524D4B",
"W  c #744446",
"Q  c #786B67",
"!  c #6A7769",
"~  c #75736C",
"^  c #70736E",
"/  c #5B756A",
"(  c #8A2F1A",
")  c #822C24",
"_  c #842D2B",
"`  c #892D26",
"'  c #833226",
"]  c #8B3425",
"[  c #843925",
"{  c #83342C",
"}  c #8C352C",
"|  c #843A2D",
" . c #8C3A2D",
".. c #8B3C25",
"X. c #933425",
"o. c #92352D",
"O. c #933B2C",
"+. c #9B3D2B",
"@. c #983827",
"#. c #862E31",
"$. c #833532",
"%. c #8C3532",
"&. c #843A34",
"*. c #8C3B33",
"=. c #843C3B",
"-. c #8B3D3A",
";. c #85333A",
":. c #933633",
">. c #933C32",
",. c #9A3D34",
"<. c #953B3A",
"1. c #912836",
"2. c #A73D2A",
"3. c #A33E33",
"4. c #A93D3A",
"5. c #A2481E",
"6. c #88412B",
"7. c #95412D",
"8. c #9C432C",
"9. c #9B4728",
"0. c #8B4333",
"q. c #83423C",
"w. c #8A4539",
"e. c #944333",
"r. c #9C4433",
"t. c #94423A",
"y. c #9D4439",
"u. c #95493B",
"i. c #9C4A3B",
"p. c #9B4A34",
"a. c #9C5138",
"s. c #A34425",
"d. c #A4432D",
"f. c #AB452D",
"g. c #A54A2D",
"h. c #AB4A2C",
"j. c #A94626",
"k. c #B3452B",
"l. c #B24A2D",
"z. c #B74928",
"x. c #A8522D",
"c. c #B2512E",
"v. c #A44533",
"b. c #AA4533",
"n. c #A44A34",
"m. c #AB4A34",
"M. c #A4453B",
"N. c #AB453B",
"B. c #A44B3B",
"V. c #AB4B3A",
"C. c #B14532",
"Z. c #B24B34",
"A. c #B24D3A",
"S. c #B94936",
"D. c #A45233",
"F. c #AB5233",
"G. c #AB523C",
"H. c #A5533C",
"J. c #B35334",
"K. c #B2533B",
"L. c #BA533C",
"P. c #BB5636",
"I. c #C3583A",
"U. c #C24E3A",
"Y. c #873C42",
"T. c #983C42",
"R. c #A03545",
"E. c #984842",
"W. c #8F4B43",
"Q. c #A44B41",
"!. c #AB4942",
"~. c #A75343",
"^. c #B75744",
"/. c #B64C42",
"(. c #BE6246",
"). c #A4655C",
"_. c #856B6B",
"`. c #897469",
"'. c #8B7A74",
"]. c #987A77",
"[. c #936F6C",
"{. c #AA7D76",
"}. c #A76C64",
"|. c #83665E",
" X c #C55945",
".X c #C65B51",
"XX c #CA6244",
"oX c #8C887A",
"OX c #95887C",
"+X c #B3827A",
"@X c #CA8876",
"#X c #957F81",
"$X c #968C84",
"%X c #8D9786",
"&X c #9C948B",
"*X c #959B8C",
"=X c #98968B",
"-X c #9A9994",
";X c #8D8D8B",
":X c #B78586",
">X c #A4968B",
",X c #A59996",
"<X c #B0938D",
"1X c #9DA399",
"2X c #BCA59B",
"3X c #BCAB9C",
"4X c #B7A597",
"5X c #B9AB95",
"6X c #BDACA2",
"7X c #B6ABA4",
"8X c #BDB3A4",
"9X c #BCB5AB",
"0X c #BDBAAC",
"qX c #B5B8A6",
"wX c #BEBDB0",
"eX c #A6A8A3",
"rX c #8B95A1",
"tX c #CA9186",
"yX c #C89589",
"uX c #C3AA9E",
"iX c #C4A69A",
"pX c #CAAE99",
"aX c #C6ACA4",
"sX c #C2B3A5",
"dX c #C4B5AB",
"fX c #C3BAAC",
"gX c #C8B8A8",
"hX c #C4BDB2",
"jX c #CAB8B4",
"kX c #D9ACAC",
"lX c #E5B69C",
"zX c #BCC4B2",
"xX c #CAC3B6",
"cX c #E7C6BA",
"vX c #D6D1CB",
"bX c #D9CFD1",
"nX c #EDD4CE",
"mX c #ECE7DF",
"MX c #EAE9E5",
"NX c #F4EAE7",
"BX c #E7F1E4",
"VX c #F8F6EB",
"CX c #F9EBF2",
"ZX c #EEF8F5",
"AX c #FDFDF4",
"SX c #FFF6FB",
"DX c #F4FFFD",
"FX c #FEFDFD",
"GX c #F7F8F4",
"HX c #EBEAF8",
"JX c #EAE4EA",
/* pixels */
"-Xu 0 L { Z g b { m m &.k =.G m J m m m m m H n k K G n G $.sXhXzXaXn P v ' B $.G h F G F F F G G F F F n m n L k J $.-.=.=.kX-X",
"e > > u.B.E.~.p.B.y.*.t.*.*.-.{ G G G L G G L G M T.-.0.k %.w.wXhXS .X X XS.Y.i H G H G h H m n k G F G &.W.$.G Q.*.*.$.m G D =X",
"9 G.v.K.l.b.m.d.V.d.V.v.+.r.y.M.V.n.V.m.d.f.m.V.O.%.e.m.,.>.{ jXl .X2.r.g.l.!.U.K.Z.f.m.A.m.m.m.Z.n.B.( d.h.A.v.d.B.} { n j 7 xX",
"t Z.m.j.z.A.f.K.j.f.f.A.d.+.G.n.n.v.n.m.g.h.h.h.Z.[ n.S.v.>.u.dXN L.C.Z. XC.v.5.A.b.f.m.^.d.b.m.d.V.B.B.V.m.d.@.h.n.>.{ J =.8 9X",
"t f.V.h.j.V.@.n.K.f.m.V.+.n.O.O.,.,.M.V.V.V.b.2.m.v.C.f. .>.| 0XF m.J.g.5.m.M.K.d.Z.Z.m.A.m.m.m.b.V.] n.n.d.V.v.h.8.O.-.=.G F 8X",
"8 V.y.n.d.t.>.7.v.V.@.M.O.O.>. .+.+.+.d.f.m.m.f.9./.6.b.>.N -.xXK A.v.m.V.o.!.v.m.h.j.m.d.K.d.v.f.V.@.v.V.@.V.n.v.~.>.u.&.l I gX",
"8 n.:. .+.$.*. . .O.O.>. .*.| t.t. . . .7.e.p.p.d.!.N ,.T.z w.sXm k.V.O.r.<.X.h.i. .*.t.-.E.$.*.*.E.$.W.| | $.-.} { t. .*.E.H sX",
"; d.o. .n.*.}  .*.>. . .t.| { | :. .O.>.:.O.>.O...:.m n Z L f gXS S.d.s.m.&.B. .O.] ~.}  .>. .} O.} -.b *. .*.| -.$.| }  .{ q.3X",
"& w.} X.]  .k =.&.k &.-.{ m j F ) } e.O.t.>.*.g *.:.m z F Z S fXm v.:.M.] -.v. .-.$. .{ :. .-.G H G n $.$.&.{ &.{ } { M { ` I OX",
"8 H |  .>.| f i k h h <.:.} <.l J { } } m i m -.v $.k F h ;.S 8Xn y.m | 0.L ' M -.$.%. .>.} $.m j Z $.k &.{ $.{ m _ t.v m _ P OX",
"8 C -.} } *.-.-.d G j l *.} ) t.j j n m m a d S H y C t L h P fXm M.&.f n G %.&.G m m m | m n x a C j d d j h j u j J x j L # %X",
"2 B $.g , m f y d s S i f | v i C S s u j k C d j F x 7 8 F 7 sXj _ k n n d #.h k k m m { k j d d S 9 q 8 s t d d h f & C y [.OX",
"7 x i f m q.i i j Z a G G l j j = % 8 d F j j Z j a d s u 8 7 gXx $.M i x s j u y a x n j n d 8 d 8 7 # w # 8 p 9 ; ; x u u r $X",
"= S a $.k y > H u z 7 # 7 w 5 4 6 6 4 7 8 d d d d d C C j p r dXH h f f j j A t s s u t t t 8 7 0 # $ # w # % 8 8 u 9 8 8 7 4 OX",
"iX{.D s s 9 w # u 9 7 1 q # w :Xe e + e 6 q 5 X * 6 = s 0 @ $XQ ].R z H V 9 V w V p 9 s s d s s 4 4 . 6 4 6 . 6 B p V 0 V 7 w ].",
"*X-X&X,X>X&XhX0X0X9X0XhX0XfX0X=X-X-X-X1X=X&X,X9XfXwX&X&X&X-X^ ^ ! ,XgXdXdX8X,X*X&X=X-XqXfXfX8XfXwX0XfXfXhX9X0X0XdXhX9XhX+ + -X-X",
"{ k G F K 5 e U -X;.K g D _ L m H n _ { H F A L K C Z $.{ M.m.b.C L n } G S D >X$.k Q.S.' K K S m.m.m.B.g G j G L k g } r.i.-.j ",
"n.!.Q.g m H D 6 -Xl {  X^. Xv.v.N.V.V.u.nXFXFXAXFXFXFXZXDXDXFXFXFXFXGXFXFXFXFXFXDXAXAXcXn.M.Z b.d.m.m.G.B.i.} M.r.n.V.L.L.m.v.M.",
"S.h.n.b.b.*.n K *XG m.S.z.U.z.h.N.f.f.~.nXFXFXAXFXFXFXDXFXFXSXFXFXFXDXFXFXFXFXDXDXSXFXnXF.n.v S.V.V.Z.h.d.V.m.f.C.C.S.P.P.z.f.Z.",
"g.f.C.g.m.b._ F -XC m.^.P.A.f.d.I.P.U.C.0.W.~.(.AXAXAXVXtXtXtXtXyX@XtX@XtXyX:XeX{.NXFXcXK.C.V.v.V.@.j.Z.Z.f.l.k.C.f.v.V.Z.m.f.m.",
"N.O...2.m.n.{ k 0X;.m.r.K.) A.G.z.g.r.X...d.Z.K.DXDXFXVX&.|  . .{ ,.G.m.n. .x ~ v bXFXcXG.2. XB.V.K.f.X.v.v.V.Z.m.V.B.n.b.m.V.V.",
"%.<.*.' O.V.i.n sXQ.j.h... .v.d.d.0.q.=.&.%.%.W.FXFXSXMX<.*.*.%.| %.$.-.w.-.Y.~ H cXFXnXx.j.N.l.B.v.v.n.B.O.8.v.h.V.m.f.j.f.b.v.",
":.%.*.>.,. .t.m gXb.s.k.i.M.v.f.V...b >.{ :.:.W.AXFXFXBX%.[ | =.0.*.%.*.' } Y.~ F nXFXcX2.S.M.j.O.+.O.O.} >.G.d.v.v.d.d.f.f.d.O.",
"X.O. .} o.o.Q.l qXv.v.k.$.3.} j.$.M  . .M &.| w.FXFXFXBX#. .&.m M ] v.h.j.m.{ ^ v kXnXpX-.>.|  . .>.}  .>.O.+.d. .O.O.8.8.+. .&.",
"} |  .{ | %.%.N qXn 4.e.X.C.< b.m &.G m f H m q.FXFXAXNXZ Z j k ;.n | M.b %.C ! b i.*. .' *.{  .} ] O.} o.%.>.} } O.} ]  .} f $.",
":., } >.} %._ h fXl b r.b.b b ,.$.{ l k m &.G =.DXFXFXBXF d 9 x %.b ` 3.` #.B Q  .} `  .*.) } ` } } >.} } ' } ' ` { } | %.m l m ",
"m { { g } %.i d 9Xt &.m ) v H _ n n f d d d i J FXFXFXNXC h i a m b b b x aXAXBX_ *.%.l { g $.%.m m | m b f { | $.| > { v &.> d ",
"u { b b o.g % d $XG 3 u t t d 9 y y y h y y y =.DXDXFXNXt t a y s > i n y 4XFXCXx & u u ; 9 8 t y y i f y > f m l f _ i l t 3 s ",
"; g g , , f 9 8 + B 3 q q 2 . * 8 8 ; 8 8 9 8 H FXFXFXMXK 8 t s 0 2 s V 8 ,XDXNXS 8 t 8 8 9 7 p 9 7 7 q 9 8 t t u y > j x G 9 8 ",
"t k l l l n 8 2 + o 0 . . 2 O t 7 7 7 9 9 8 7 D FXDXFXDXAXAXAXGXDXFXGXFXAXFXDXMXq # = % 9 w w $ w # @ 5 # 7 7 7 % # C 7 a % 0 w ",
"d j ;.;.d 2 p :X/ + o . .   7 w $ % 7 9 8 8 0 P FXFXFXFXFXFXAXDXFXFXFXDXAXFXDXZX:XD F L d s p 0 q 7 # 7 # 0 0 s q 8 9 3 8 p 9 7 ",
"0X=X>X>X%X1X^ ^ ^ _.<X,X*X,X&XzX0X0X9X0XfXfX8XfXFXDXFXSXbXbXbXbXvXbXvXvXbXCXSXZX%X*XfXsXfXfX~ zXfXfX0XxX9XfXfXfXwX9XhXfXdXfXfX0X",
"H H F F H G G n G F F F F F F G n ;.n D S ,.1.zXAXFXFXHXm J H P m J H J P aXAXmXH H J n n H G L m m H P K U ! >X<Xx N n F H g G ",
"C.C.C.S.L. X X XL.S.Z.C.Z.Z.C.C.C.j x y.b.p.d Y FXFXFXMX{ g b b K.p.' { x aXFXMXK.m.L.(.J.J.F.V.D.K.H.[ m r E rXP v V.H.' b.n.V.",
"h.h.h.h.h.h.h.h.h.h.d.h.m.m.h.h.V.Q.B.' e.f.{ q.GXFXFXCXG.F.F.G.z.J.D.H.&.aXAXMXXXj.P.I.P.h.c.h.9.Z.m.x.c.m.9 ,XF !.( A.b.h.XXJ.",
"V.V.V.V.V.V.V.n.b.V.V.V.V.B.V.V.M., /._ , d.E.W DXFXFXNXn.m.g.J.F.D.g.J.9.@XlXpXF.F.h.XXJ.(.x.F.w.$.=.M F.F.> &XL g L.v.V.k.P. X",
"f.f.f.l.C.C.m.m.m.m.m.b.v.d.d.m.C.n !.3.D.H.;.=.FXFXAXVXG.^.D.D.G.D.F.I.P.F.D.g.h.P.P.j.J.P.J.c.z.v.| 0.( G.c >XF E.2.V.G. Xd.V.",
"n.n.m.h.g.g.d.8.m.v.v.r.8.8.d.n.l.v.m.V.Z.j.*.w.AXFXFXCX9.g.6.%.g.x.c.z.l.g.n.^.h.m.F.n.K.F.h.h.F.T Y Y H I R -XJ b.c.f.L.g.S.8.",
"v.v.b.V.b.v.v.r.v.r.,.r.r.r.v.V.b.m.g.V.C.z.~.Y DXFXAXNX..O.0.a.m.G.D.m.F.H.0.| ~.| 0.M 0.| a.~.a.6.| 0.v _ n >Xg 8.z.f.^.S.s.b.",
"r.r.v.g.g.v.r.e.7.O.O.e.r.r.8.8.8.<.y.8.9.m.R.U DXFXFXCXD.F.a. .*.|  .G.n.0.N *.| W.).}.H 0. . . .B.A. .J ;.P %XC M.f.m.v.n.+.r.",
"$.e.r.d.d.r.,.%.e.u.| { | e.7.r.r.r.u.e.8.b.w.T DXDXFXBX:.0.m =.|  .~. .~.b 0.| *.:XFXZX=.' | M M %.&.M H L C =XC V.b.7.' $.< ,.",
"$.%.e.7.r.y.| $.:.,.} E.<.M.@.+.9.+.b.3.d.+.E.Y.FXFXSXVX!.b 0.&.&.&.-.&.*.$.&.&.M :XFXDXF { &.G M E.b M M =.j 0XS > k.6.G 4.M 4.",
"m { $.| 0.*.b m &.m &.m &.m *. . .:.,.Q.8.r.u.q.FXFXSXmX&.6.M m J J m M m &.J J Y <XFXFXZ _ $.$.|  .| u.M m J 8XF l 2.J C ) D ) ",
"m m m m m m &.$.k m H H j $.-.-.k W.$.m u.u.w.W.FXFXFXBX:X{.{.:X+X{.{.+X+X+X+X{.{.jXSXFXD F z z v m b { M i d fXy 4.8.f C > F d ",
"n m k G k m t.{ F F C G j G m { M t.{ n nXAXFXFXSXFXFXDXFXFXFXGXDXDXDXFXFXFXFXFXFXSXFXFXV x n m F J n $.n z 8 3XiX3.> f j s ` Z ",
"i v i m k k &., q % 8 t x i a i g l y P nXFXDXGXFXAXFXFXCXFXFXFXFXFXFXFXFXFXFXFXDXDXSXAX4 9 ; H t S s y q 4 7 $Xz ] u > t 9 , d ",
"u u i y t u s q 5 5 5 q 0 s t a B q q p a p # s '.6 @ q D q V s s s 9 9 9 9 8 s a p B q % 9 d 8 d : q s @   _.=X% f t w 7 : z s ",
"% 8 s & 8 w 4 W E E E       4 X $ * - $ # O . [.Q `.$ # * $ - - @ = * . 4 * @ @ X `.|.Q _.Q # w 8 z = q .   '.;X[.0 : 4 1 ; 2 t ",
"sXsXsX6X6X$X$X$X$X#X'.'.oXoXOXrXOXqXuXaX3X9X2X$X8X6X3X6X3XuXsXfXfXsXsXdXsX8XfX0XjX=X&X&X$XoX$X;XQ 9X~ 9X9X&X*X=X-X$X>XdX$XfXhX9X",
"n H n J n n t d < ~.V.C.N.C.U.h jX0 : R g S J H m F L L G J F S F F H H G n F j F H G A A G S _.! ^ + r I F C A H n n m m n d H ",
"M.r.y.y.r.y.o.r.V.m.9.g.H.9.l.m fXd ; _ b.g N.M.j.K.d.V.n.v.B. .n.m.m.m.h.Z.Z.Z.Q.[ g Y.=.$.F ~ ~ e 7 n m { f m V./.v.V.V.n.] r.",
"r.8.r.8.v.d.8.d.N.4.L.S./.V.V.P 0X7 c N.g.H.f.V.Z.m.v.V.d.K.n.v.Z.Z.m.m.f.m.d.V.V.d.n.i.{ o.q.^ _.K %.3.b.A.V.n.d.d.V.d.m.g.d.8.",
"b.V.d.m.b.b.m.m.D.v.g.f.A.j.k.d jX9 m A.v.A.X.A.b.V.@.V.m.f.L.b.k.f.f.S.m.v.@.y.] A.k.S.C.C.H ^ 9Xx v.Z.S.2. Xh.f.d.Z.b.d.m.V.v.",
"m.K.m.v.n.8.V.v.C.f.n.8.v.m.C.=.=X;.G ( !.d.T S.v.O.r.n.n.Z.j.m.V.m.m.m.r.e.< *._ H.s.h.g.d.$.,X-XN V.s.x.m.g.9.v.v.+.v.@.v.@.n.",
"m.n.n.8.B.e.i.r.~.,.B.b.y.8.a.$X*XZ D ' %.B.c A.%.{ =.&.-.{ $.$.$.$.{ $.-.E.&.W.:.i.n.n.v.m.` C -Xi C.J.s.C.2.b.8.7.e. .r.O.@.r.",
"C.C.v.n.O.y.] } ( M.7.8.r.d.b.P =X$.D N.-.[ | N.v.} E.{ $.$.$.=.G &.| { } i.] O.*.b M.@.V.v.r.m =XH b.s.9.r.b.7.+.+.+.O.@.v.3.+.",
"v.] r.t.} ] r.7.} t.y.7.8.@.M._ ^ D k H J { $.$.&.$.{ $.{ $.{ $.{ $.$.{ { *.t.B.N.' G G b d.M.S $Xd M.8.f.d.O.O.*.g ' >.,.+.2.2.",
"| $.$.$.-.{ { $.m { >.M.3.Q.&.S Q d %.m { %.k &.G k J f J J &.m m m G J m { { ' M v $.k b g.3.l $XV _ ) ` *.f m <.{ } } ` X.3.3.",
"L n G G $.G $.G @.n.O.< 7.[ t.m Q C g | %.g &.i k Z k G j -.$.G L H n d j k k m g n G j b d.+.> ].p G > $.j i i > > v n i f v , ",
"F i k g b g m f O.o.>.,.,.:.j d oX8 H n f m F x C a d a C j a h y a d F F n j f g f j a f ] , * `.t i c j f > i k f l i y a d y ",
"t n m g *.{ f m b g *.-.l f d q oX7 d F j a p d S s s u s s s s d a t t t a a h s u j h s u & r `.% & 9 & 3 y y &.j y t t 0 p 0 ",
"2 0 s t n i t d } { , > $.> y a '.5 # s a a d a t s t t % s t p t 0 9 9 8 8 t t 9 ; t 8 4 $ 5 E Q 1 7 5 0 2 V 0 9 8 7 w 7 # @ @ ",
"4 @ 5 4 @ @ 5 = X   . 4 4 * . '.`.].$ . S = @ s 8 8 s # 8 7 9 8 w = $ . . @ = w p : = @ . . * E E 4 . 4 @ 7 1 @ # @ @ @ @ @ @ @ ",
"3XsXsX3X6X4X4X4X4X4X4X3X4X2X2X4X4X4X3X3X4XsX3XuXsX3X3X3X3X6X4X3XuXuX2X6X6XaXuXuX7X4XiX4X4X4X<X2X7X2XiX4XiX4X5X4X4X3X2X4X6X6X2X4X"
};
