/* XPM */
static char *_2086a9bac884f68e984b1cfebd5e20aHNwYCzYyjwxN1z7d[] = {
/* columns rows colors chars-per-pixel */
"64 64 256 2 ",
"   c #39150B",
".  c #3A1918",
"X  c #330806",
"o  c #39221E",
"O  c #391C22",
"+  c #3C2323",
"@  c #1F1013",
"#  c #47160C",
"$  c #431B1C",
"%  c #4C1C1B",
"&  c #461915",
"*  c #571919",
"=  c #510F0D",
"-  c #671B0D",
";  c #661D19",
":  c #771C11",
">  c #4B2115",
",  c #4C221D",
"<  c #47251B",
"1  c #53231B",
"2  c #5B221D",
"3  c #5A2919",
"4  c #4F200E",
"5  c #63241D",
"6  c #6C261C",
"7  c #672819",
"8  c #742B1E",
"9  c #792819",
"0  c #732E19",
"q  c #501925",
"w  c #4C2323",
"e  c #4A2927",
"r  c #532423",
"t  c #5C2523",
"y  c #542B23",
"u  c #5C2A25",
"i  c #542D2B",
"p  c #5C2C2A",
"a  c #58262A",
"s  c #4A312A",
"d  c #5C322B",
"f  c #583328",
"g  c #5B3333",
"h  c #583736",
"j  c #503334",
"k  c #632423",
"l  c #6C2422",
"z  c #642B24",
"x  c #6B2B24",
"c  c #642C2A",
"v  c #6B2E2C",
"b  c #692529",
"n  c #742D24",
"m  c #7B2C24",
"M  c #742D2B",
"N  c #7C2E2A",
"B  c #742521",
"V  c #643224",
"C  c #6C3325",
"Z  c #64332C",
"A  c #6B332C",
"S  c #6B3B2C",
"D  c #673A27",
"F  c #743224",
"G  c #7B3224",
"H  c #73332B",
"J  c #7C342B",
"K  c #753A2C",
"L  c #7C3A2C",
"P  c #783A23",
"I  c #652C32",
"U  c #643331",
"Y  c #6C3432",
"T  c #653C34",
"R  c #6D3C33",
"E  c #653B3A",
"W  c #6C393A",
"Q  c #743533",
"!  c #7B3433",
"~  c #743B34",
"^  c #7B3C33",
"/  c #743B3A",
"(  c #7A3C3B",
")  c #7D2C32",
"_  c #661F23",
"`  c #59433B",
"'  c #77432E",
"]  c #68423A",
"[  c #78443A",
"{  c #6E4229",
"}  c #5D3D42",
"|  c #6E3C41",
" . c #5B4846",
".. c #684846",
"X. c #794744",
"o. c #7A5247",
"O. c #785956",
"+. c #6C5251",
"@. c #7D6559",
"#. c #716B5E",
"$. c #7A6766",
"%. c #872A1C",
"&. c #86361E",
"*. c #93381E",
"=. c #832D23",
"-. c #8B2E24",
";. c #862B28",
":. c #833324",
">. c #8B3325",
",. c #83342B",
"<. c #8B342A",
"1. c #843A2C",
"2. c #8C3A2D",
"3. c #873B24",
"4. c #943425",
"5. c #93352C",
"6. c #933A2C",
"7. c #9A3B2B",
"8. c #99362A",
"9. c #823631",
"0. c #843C33",
"q. c #8C3C32",
"w. c #893938",
"e. c #943C32",
"r. c #9B3D33",
"t. c #963835",
"y. c #922D27",
"u. c #A4392B",
"i. c #A43D35",
"p. c #AF3630",
"a. c #8D412D",
"s. c #844329",
"d. c #93422D",
"f. c #9C412E",
"g. c #944A2D",
"h. c #8C4234",
"j. c #8C433B",
"k. c #8C4A3C",
"l. c #854637",
"z. c #934334",
"x. c #9C4333",
"c. c #9B4A35",
"v. c #94453A",
"b. c #9C443B",
"n. c #934A3C",
"m. c #9C4B3C",
"M. c #934B34",
"N. c #9A523B",
"B. c #A6422A",
"V. c #A24434",
"C. c #AA4433",
"Z. c #A44936",
"A. c #AA4A35",
"S. c #A3453A",
"D. c #A44B3B",
"F. c #AA4D3C",
"G. c #AA443B",
"H. c #AB523C",
"J. c #A6533B",
"K. c #B64E39",
"L. c #853B42",
"P. c #884A45",
"I. c #944C42",
"U. c #9C4C42",
"Y. c #984945",
"T. c #89554A",
"R. c #9C544A",
"E. c #985546",
"W. c #875A54",
"Q. c #975B54",
"!. c #A44D42",
"~. c #AA4E42",
"^. c #A54847",
"/. c #B54C44",
"(. c #A45245",
"). c #AB5343",
"_. c #A3554B",
"`. c #A95849",
"'. c #B55446",
"]. c #A65A53",
"[. c #AE5753",
"{. c #89655A",
"}. c #946759",
"|. c #8F6A55",
" X c #A76558",
".X c #B36856",
"XX c #896964",
"oX c #976B67",
"OX c #8A776B",
"+X c #947469",
"@X c #987875",
"#X c #8B7273",
"$X c #A56864",
"%X c #A8726A",
"&X c #A87B76",
"*X c #B87C73",
"=X c #B3736A",
"-X c #975F62",
";X c #C66A5E",
":X c #95887D",
">X c #A8857A",
",X c #B9877B",
"<X c #BF8669",
"1X c #C78678",
"2X c #A57E81",
"3X c #998682",
"4X c #A78985",
"5X c #B68A87",
"6X c #B8958D",
"7X c #BA9996",
"8X c #AB958D",
"9X c #BEA29A",
"0X c #AAA496",
"qX c #B8AEA7",
"wX c #BE9FA4",
"eX c #C99388",
"rX c #C59A95",
"tX c #D69B96",
"yX c #D0938C",
"uX c #C7A299",
"iX c #D9A398",
"pX c #E7A69C",
"aX c #E3B09F",
"sX c #C79DA6",
"dX c #D49BA9",
"fX c #C8A6A6",
"gX c #DCACAC",
"hX c #D5A9A6",
"jX c #DAB3AA",
"kX c #D9B7B4",
"lX c #CBB0B1",
"zX c #E8A7A3",
"xX c #E6B4AA",
"cX c #E8B8B4",
"vX c #F7B0AB",
"bX c #E29D98",
"nX c #D6C4BC",
"mX c #E7C3BC",
"MX c #DACDC8",
"NX c #FCDBD4",
"BX c #EFD1CD",
"VX c #FCE5DB",
"CX c #FFF4DE",
"ZX c #E7E5D8",
"AX c #FFECE4",
"SX c #FEE9E8",
"DX c #FFF3E5",
"FX c #FFF4EB",
"GX c #FFFBEC",
"HX c #FBF9E5",
"JX c #FFF5F3",
"KX c #FFFBF3",
"LX c #FFFCF9",
"PX c #FFF5F9",
"IX c #F3EEEA",
"UX c #FEDEE1",
/* pixels */
"1XL - 8 J G :.m :.:.:.J J L L 1.,.,.;.:.>.=.:.:.,.9 j.J 5 T.5XcXvX1Xv.m 1.,.8 ,.,.,.,.:.G G G :.=.%.9 0 P P P P 1.J j.! X.XX@XfX",
"1.7 8 h.U.n.m.b.U.m.v.z.h.1.L 1.,.<.<.<.>.>.>.>.2.8 v.0.z ( oXtX*X.XU.m.[.(.2.q.m m m 9 8 8 8 8 2.>.:.3.s.s.s.1.n.q.w.M Y W ..4X",
"- G n._.(.m.!.!.!.m.m.m.n.n.n.n.b.b.b.b.b.x.x.x.b.:.U.R.0.^ T.tXq.m.m.`..X`.z.z.(.(.!.!.!.m.U.m.b.x.d.z.M.M.M.h.v.b.q.m ( Z g 7X",
"0 N.`.m.z.x.b.!.S.b.m.m.m.m.m.m.!.!.!.~.~.F.~.~.D.<.U._.I.^ P.pX:.x.b.m.`.D.x.!.(.(.!.!.!.!.D.!.D.S.c.m.N.N.N.c.x.D.e.N I.Y U cX",
"- m.(.6.x.S.V.~.).~.D.m.z.a.2.2.b.b.S.S.S.S.V.Z.D.>.z.m.Y.J j.zX2.!.!.b.D.b.x.'.S.S.S.b.x.x.x.x.D.S.x.M.N.N.c.c.D.~.r.,.I.z u xX",
"- m.m.6.~.S.4.r.S.S.S.x.x.z.d.e.e.r.r.x.V.V.V.V.F.x.x.q.v.J 0.vX%.S.~.V.S.x.r.D.~.~.~.F.F.D.D.D.V.x.z.d.h.g.d.d.S.V.r.<.v.v Y gX",
"9 D.x.2.).7.: 8.8.8.6.6.e.z.z.x.e.e.r.x.x.V.V.V.V.S.x.:.j.! 0.vX9 V.D.r.r.7.4.r.7.7.6.6.6.8.8.8.r.6.2.3.s.s.3.3.7.-.r.e.w.^ P.jX",
"6 M.2.=.!.6.%.~.7.6.6.<.<.:.:.:.<.<.<.<.6.6.7.7.-.6.<.: 9.J ! pX<.).~.r.r.7.5.x.e.6.e.6.6.6.6.6.e.5.<.3.1.3.3.&.6.%.e.5.N ! P.rX",
"8 1.2.:.=.6.e.6.5.<.<.>.:.:.,.1.1.q.z.z.z.2.>.%.<.2.b.- 9.w.l vXq.e.x.e.6.<.6.e.<.>.<.6.e.e.6.<.=.=.,.1.1.L :.:.6.6.-.=.9.^ T.,X",
"= 8 h.h.q.2.=.: =.=.<.q.q.1.G 8 n F G J J :.:.:.,.G q.- ! Q * zXB =.q.z.q.2.<.<.q.2.2.q.q.q.,.=.N J J K K K P G 9 2.<.m ! z Z oX",
"5 C ^ 0.0.j.j.w.m m m J L ^ l.l.~ ~ H H F F F F G 6 H 5 ( Y c cXj.w.0.J N J 9.0.0.0.9.0.0.0.J N M M v V V V C C - j.,.N P.Y R 4X",
"A A A x l l l l l l l x x A S R p p p u z x x x x 5 c k I q a gX( ! M l 5 l x M l l l x M M x k Q Y Z p f f V V * 0.; = Q c E 6X",
"# % p W [ / Y v Y ~ [ X.[ Y u , < w y d T R ~ ~ [ R / W g $ } gXc Z Q / ( / Y c Y Y Y Y ~ Q Z c a a w w < < > 1 z ^ ; * U p ` 4X",
"T d i d U U U Y c p 1 % % , i d w w e y y y 1 1 y y i g i w +.sXX./ U p a p p p p p u p p u r % g g j s s s i y % * 2 a a e  .#X",
"7X@Xo.g r % r p W U r $ w g ..O.` h j j s e y y i i e h } h +.#X{.o.W g p d g g p p p U E E U g . O O O o o . . d p | X..    .$.",
"rX5X&X5X6XrXhXgXrXhXgXcXcXhXtXrX5X4X4X4X4X8X7XuXlXfX5X5X5X&X&X%X%X,XrXgXcXgX7X4X5X5X7X9XhXgXgXgXgXgXkXkXkXkXjXjXxXtXxXtXW p +X6X",
"J J K ~ Z 1 1 Z 5XV C ' G 1.:.,.5 W.& f j ` ` +.h X.[ n :.D.H.f.9 h.P l.N * $.3X} } #. .E W c ^ ].I.n.n.s.7 7 1.8 G :.h.h.h.P F ",
"b.e.h.j.' V u D ,XD ' N.c.F.C.C..XVXDXFXGXGXIXZXkX%X0.z.F.B.B.K.B.J.s.n.^.$XBXLXPXSXLXKXFXSXAXAX.X).D.H.J.d.6.c.f.c.c.J.).H.Z.x.",
").!.m.I.P.' S D ,XK k.`.).'.K.K.`.NXDXFXVXKXKXKXJXhXQ.U.).A.B.K.H.H.g.U._.=XBXKXSXSXKXKXSXSXNXNX.XD.f.D.H.Z.c.D.D.D.D.J.).).J.D.",
"~.S.v.n.I.l.K V eX' k.`.D.F.B.u.S.*X X{.+XZXKXJXJXNXyXI.2.J.J.*.B.Z.N.`.^.w.{.3XO.2XIXVX5X$X].=X).V.f.V.D.V.V.D.Z.V.V.V.Z.D.Z.V.",
"i.r.6.z.n.k.' C tXl.h.D.7.B.u.u./.!.J [ +XAXJXJXVXFXNX%XG s.M.&.*.*.N.`.^.w.T O.a oXKXGX,XP.k._.J.A.A.A.V.f.Z.H.H.A.Z.Z.A.F.A.Z.",
"8.7.5.2.v.n.l.F pXn.M.D.7.C.C.K.G.e.1.l.}.DXJXJXFXJXFXxXQ.C C M.3.%.d.z.8.t.] XXY oXGXHX,XR.R._.x.Z.A.C.7.7.C.F.F.F.A.A.A.F.A.C.",
"4.7.6.<.q.n.j.L pXn.n.D.f.C.C.K.C.6.q.K T.FXFXMXSXJXJXFXhXo.D [ d.9 a.:.y.e.R XX/ Q.CXDX*XU.R.z.6.7.7.4.4.7.f.V.V.V.7.V.V.V.7.7.",
"4.7.6.>.1.h.l.L pXI.n.m.6.f.7.u.8.-.1.x W.FXVX@XMXNXJXJXVX8X+.f h.9 N.m.G.^.R {.A Q.HXHX%Xw.q.,.6.4.>.>.7.V.V.f.7.7.7.7.7.7.4.>.",
"%.f.S.6.G G L L vXx n _.z.>.>.7.%.r.0.A [ DXJX#Xh AXJXAXJXVX$.` l.:.7 R.;.;.Z oXv Q.HXCX=Xw.6 v.>.<.6.<.>.>.>.6.6.6.6.6.<.>.>.=.",
"&.9 - 6 2.I.0.5 tXl n I.q.1.:.2.e.2.6 V o.FXDXXXh #XUXPXJXLXMX .3 G H E.5.t.S o.~ T.GXHX*XI.J I.,.2.2.1.:.:.<.q.q.q.q.2.2.1.,.:.",
"d.a.2.1.^ ^ A 2 hX[ Q Q 5 H J 0.9.N 5 U W.GXJX@X... 4XPXJXLXLXqXZ A S P.B ; T +X/ X.HXGXoX^ x H J L 0.J J J J 0.J J J J J J n n ",
"- 7 F F x z Z Y %XU c 1 # 5 2 5 * v Z d ] VXDX#Xh $ h 7XLXLXIXLX6XR   [ ! = f 4XZ Z GXGX}.v z z k 7 5 5 5 5 k z 5 k k 5 5 5 5 2 ",
"F 7 5 x A U p w i & g g d T 1 % * | E i ..JXJXXXe ..i +.ZXLXZXLXSXXX  r L.k f @.y d GXGXXXp p Z u u t t u u u u Z U Y Y Y Z Z Z ",
"C C S S p , w i i . w . . <   < & e . . ..JXJX@.. h e X +.ZXLXLXPXkXXX  X # +.$.] ] HXGX@.& X $ % & & & & & & & , , r r r , , , ",
"# 3 ] [ d i ..XX..j e . . + . ..i i + j +.DXSX#Xh g g $ + 8XJXJXLXJXMX+.a I :X0X+X{.IXHX:XE w h h j i i g g g i i i g g g g g i ",
"xXyX,X,X,X&XoXoXoXoX4X5XrX6X&XhXgXhXfXkX9XJXJXkXlXrXhXcXkXuXmXJXJXJXJXnXBXgXlX8X7X>XGXGXmXrX&XrXxXhXhXhXhXkXlXhXhXhXgXgXgXhXhXhX",
"9 m G :.,.,.,.,.0.9.,.J J J J ,.,.N z ] O.JXJXfXfXE c A E.6 l.xXGXZXKXJXXX/ X.y R [ CXCX%XP 0 a.>.1.0.C ] ] ..fX&X| ! w.N <.e.9 ",
"!.).).).'.'.'.'.!.!.!.D.S.S.D.D.G.r.J [ {.GXJX4XkXE 2 ; m.:.&.E.BXGXGXBXAXW.R T.Q.}.CXCX<XN.g.J.F.F.m.s.[ T g 5XQ.! w.^.t.i./.A.",
"x.V.S.D.D.F.D.D.).).~.F.F.F.~.~.'.S.J [ {.GXDXOXfXX.T.k.(.m.).E.>XGXVXFXFXBX[ oXoXoXDXCX1X.XJ.J.A.F.J.k.T.o.] 5X/ ! Y.[.i.G.'.;X",
"V.D.D.F.F.F.F.D.S.S.V.V.x.V.V.V.C.r.,.l.{.HXDXXX7XR Q.I.m.c..XE.W.9XDXAXFXAXmXW.{.|.HXDX<X XN.x.u.7.z.h.T.T.X.6XY w.^.[.G.C.K.'.",
"D.D.F.F.J.F.F.F.D.Z.Z.V.V.Z.D.D.4.x.h.P.|.HXFX+XmX[ l.n.`.J.H.3.T.T.mXCXAXFXFX4X@.{.HXDX,X.X`.F.A.B.d.P l.[ R ,XQ P.^.^./.G.C.A.",
"x.x.x.V.V.x.x.x.Z.Z.Z.Z.Z.D.D.F.7.~.R.E.}.HXHX+XhXX.Q.R.`.d.c.N.E.T.E.VXVXDXVXDXOX#.HXHX,X X!.'.C.f.6.F ' { S ,X! Y.!.^.'.'.C.C.",
"D.D.D.F.F.D.D.D.x.x.f.f.x.x.x.V.V.).U.T.}.HXDX{.T c ].2.2.9 *.J.`.1.E.%XDXNXDXGXnX:XDXDX>XP.w.^.7.7.d.P ' { S eXM U.^.i.'.'.B.A.",
"x.f.x.x.x.f.d.6.x.d.x.f.x.x.x.V.x.S.h.l.|.HXAXO.u ~  XJ `.`.g.3.a.z.1. XeXDXHXDXKXqXGXDX&X[ ) U.S.Z.N.s.' S V ,Xx _.^.r./.F.7.A.",
"2.6.x.m.m.z.6.<.m.z.2.:.>.6.m.).6.(.h.[ +XHXDX>X{.P.I.E.a.3.s.3.&.m.U.0.Q.jXDXKXKXGXKXKX&X/ L.9.e.&.m.L S S S 1X5 q.`.S.5.-.4.6.",
",.2.z.z.z.h.2.:.z.z.z.z.z.q.2.2.z.m.E.}.W.VXVXO.oXX.l.E.n.s.s.&.9 a.v.J A }.kXJXGXGXGXKXXXI w.w.e.<.l.P { D S iXl.q.<.-.5.b.e.:.",
"J ,.0.q.q.0.,.J G J 1.q.h.h.h.q.n.8 C o.@.GXJX@XoX[ H k.l.P ' P 1.,.1.0.x Z >XNXKXKXKXKX@XX.P.w.w.0.L S [ V D aX; N q.5.<.<.,.,.",
"H J J ^ ^ L J J J H n n H L 0.j.J l.[ o.{.AXVX#XXXW.P.' 7 P l.s.k.F x 0.0./ W.>XFXKXFXAX@X] v ; ! 0.C S o.3 V iXH w.Y.2.9 ; m 0.",
"H H H H Q Q Q Q ^ Q M x x x v H P.NXDXFXFXJXPXPXSXSXNX*XA C ' D ' C x H ( ( W E fXFXJXJX@XU p v x ~ u R [ > D eX*XR.m ; l M H H ",
"v v v v v Y Q Q * t k v v v v c P.AXFXAXJXLXBXPXPXPXNX&Xz 5 { 3 u R ~ z k v Y I ..mXSXAXXXy d X.k Z y T f   [ >XP.H ; l M M v v ",
"c c t t c c Z Y * * t t c c c c # T., . s j @  .$...E r # 1 D f 1 d Z t * b I I X @X5X6X..< > t t p 1 g .   {.&X# * l M b * t c ",
"k t t 2 t u c Z P./ c * # # = % # y . e + s e O.2XW % t t 1 & # # # # * k _ * = t XXO.+X{.{.T & i e w h X   &X&XoX~ = = * 2 * t ",
"pXpXpXiXyX1X*X%X*X*X=X X$X=X*X*XrX>XlXhXrXjXuX,XtXtXtXbXpXzXpXpXpXpXpXpXpXzXzXzXtXeX&X>X5X@X+X8X$.qX#XfXgXrX%X5X,X,XeXeXtXiXzXzX",
"F F J L F 8 6 7 0.k.E.R. XR.k.H 6X] ] [ S ~ H F G G m G ,.9.9.J F F F F F J J J ^ ~ Z R X.E ] XX$.#Xe } W Y Q P.C C D D H J J J ",
"h.h.v.n.n.n.n.n.v.n.v.n.U.U.h.F xXi & R [ ^ K k.I.n.v.v.Y.Y.Y.v.R.E.E.E._._._.].0.j.^ / [ U E {.O. .. I _ l J J E.E.E.n.I.n.b.r.",
"z.z.z.z.z.z.z.z.`._.m.n.U.`.m.h.xXp 1 T.}.Q.I. X`._.(.(.`.`._._.v.v.z.z.v.v.v.v.Y.R.I.P.P.R ~ {.oXE W $X_.[.[.v.m.m.m.m.b.S.S.G.",
").).!.D.D.D.!.!.x.b.D.D.).).e.8 tXZ Z T.E.I.h.z.x.z.z.x.b.U.Y.v.(.(.!.!.!.S.b.b.<.Y.Y.k.P.l.P.$XtXX.P.[.L.^.;XG.F.F.J.F././././.",
"V.V.x.x.x.x.x.V.V.D.V.x.V.D.V.e.yX~ ( P.l.n.z.c.S.S.b.S.!.!.!.!.b.b.b.r.r.r.r.e.5.!.!.U._.R.I. XtX! Y.^.i.i.K.u.7.7.7.7.u.u.p.p.",
"/././.F.F.F.F.F.F./.F.7.4.V.'.[.1Xz x ^ J 2.a.J.>.&.%.-.>.<.=.=.5.5.6.t.8.8.8.8.-.b.b.v.U.h.J 0.*Xl ^.^.'.p.p.u.C.C.C.C.C.p.p.p.",
"G.V.C.V.7.4.y.*.%.7.G.V.i.V.i.x.yXA H E.h.1.:.m.x.6.6.6.e.e.<.<.=.-.y.5.5.8.r.r.-.r.b.b.(.m.q.0.1Xn U.e./.8.8.i.*.*.4.4.7.u.u.p.",
"i.r.r.7.r.r.i.V.4.7.r.7.V.F.r.=.R.P.H x 0.q.:.&.:.>.>.>.<.2.q.q.<.<.<.<.5.r.S.^.i.r.5.=.,.z.h.L *X' k.(.D.V.4.f.&.&.&.3.2.r.V.G.",
">.>.>.>.-.-.-.-.6.r.r.e.r.r.5.9 P.~ v H ^ L ,.:.:.:.:.:.:.,.J J N N N =.=.-.<.5.5.-.=.m q.n.h.C }.u C J :.:.: 9 3.s.s.s.h.v.b.b.",
"2.2.q.q.2.2.<.:.<.2.q.2.z.z.q.J $XW / P.^ F 1.G G G G G J J J J H M M M N N m m ,.m B m l.k.L 3 >X] S ~ J 0.G P 7 7 3 3 5 5 l l ",
"6 6 8 n n 8 6 6 h.h.h.h.h.h.0.^ &Xa p X.c 5 K 7 6 6 7 7 z x z z Q ~ Q ( Q ! M M M l 6 l H H 5 4 +Xs < 1 2 n 5 7 K S D D Z Z v v ",
"C H K ^ [ [ ^ K ^ ^ K H x 5 2 2 &Xe $ W Z Z [ A C C A S S Z Z U r r a a t t t t Q Y A S V u V d +Xh i y t Q x x V u y y r t r t ",
"3 3 u z V V V z R S S R S S R [ @Xh . i r r u & 1 1 1 1 , , , < j j j g g U U U % % 1 > #   > f O.e e % * b * 2 y y y e w w q q ",
"> > > > > > > >   X   & > > y T #X+.h h h d y y d f f d f i i s + O . . . $ $ % a y y y < < y ` ` . e % & t * * % $ $ . $ $ q q ",
"hXhXuXuXuXuXuXuXuXrXrXuXuX6XuXjXfXlXwX7XfXuXrXhXuXuXuXuXuXuX9X9XlXlXfXfXfXfXfXhXfXrX7XuX7X6X6X9XlX7XfXsXyXdXyXtXdXfXfXsXsXsXdXdX"
};
