/* XPM */
static char *rcp23283624045230685[] = {
/* columns rows colors chars-per-pixel */
"64 64 177 2 ",
"   c #2D1A1A",
".  c #341E1E",
"X  c #262524",
"o  c #3A2121",
"O  c #302F2D",
"+  c #343331",
"@  c #3E3D3B",
"#  c #441D1D",
"$  c #481F1F",
"%  c #45201D",
"&  c #48221F",
"*  c #4B2120",
"=  c #542323",
"-  c #5C2424",
";  c #5F2925",
":  c #5E2828",
">  c #403F3C",
",  c #5C3232",
"<  c #622727",
"1  c #622A26",
"2  c #6D2A26",
"3  c #642928",
"4  c #6C2B2B",
"5  c #682723",
"6  c #742C25",
"7  c #7B2C24",
"8  c #732E2C",
"9  c #782F2A",
"0  c #6E312C",
"q  c #75322D",
"w  c #7C322C",
"e  c #7E392F",
"r  c #763230",
"t  c #793332",
"y  c #7D3E3E",
"u  c #41403D",
"i  c #474643",
"p  c #504E4C",
"a  c #53514E",
"s  c #784747",
"d  c #765A5A",
"f  c #6C6A67",
"g  c #6E6D69",
"h  c #706E6B",
"j  c #74736F",
"k  c #7F7F7E",
"l  c #802F27",
"z  c #83342C",
"x  c #8A362C",
"c  c #85382F",
"v  c #8E392F",
"b  c #953C2D",
"n  c #993E2E",
"m  c #9C3826",
"M  c #833631",
"N  c #843B32",
"B  c #8A3A32",
"V  c #913D32",
"C  c #923D32",
"Z  c #913C31",
"A  c #913B31",
"S  c #9C3F30",
"D  c #A23E2A",
"F  c #99402F",
"G  c #83423B",
"H  c #8B413A",
"J  c #9C4332",
"K  c #A5432E",
"L  c #A8452F",
"P  c #A64A2E",
"I  c #A54732",
"U  c #A74732",
"Y  c #A54631",
"T  c #A44531",
"R  c #A94731",
"E  c #A84732",
"W  c #AA4732",
"Q  c #A94731",
"!  c #A74832",
"~  c #AA4831",
"^  c #A94832",
"/  c #AA4932",
"(  c #AB4932",
")  c #AA4832",
"_  c #A94831",
"`  c #AB4932",
"'  c #AB5132",
"]  c #AC563B",
"[  c #C3563F",
"{  c #C3563F",
"}  c #C35E3F",
"|  c #8A4B43",
" . c #834A46",
".. c #86524E",
"X. c #8F5854",
"o. c #945752",
"O. c #95615D",
"+. c #B26A57",
"@. c #B36A58",
"#. c #846B66",
"$. c #846D69",
"%. c #8C6E6E",
"&. c #986A67",
"*. c #87726C",
"=. c #89746E",
"-. c #8B7771",
";. c #8E7C76",
":. c #8F7F79",
">. c #B87A6C",
",. c #91827C",
"<. c #B7857E",
"1. c #938680",
"2. c #958B84",
"3. c #958B85",
"4. c #978E88",
"5. c #97908A",
"6. c #99948D",
"7. c #9B9790",
"8. c #9B9891",
"9. c #9B9891",
"0. c #AC8F8D",
"q. c #A78381",
"w. c #BF8C82",
"e. c #B1918F",
"r. c #B49286",
"t. c #A89998",
"y. c #B89E91",
"u. c #B39997",
"i. c #B9A38F",
"p. c #B9A495",
"a. c #BAA799",
"s. c #BBAC9D",
"d. c #BDB09F",
"f. c #B6A5A4",
"g. c #BBACAC",
"h. c #BCA7A5",
"j. c #BEB5A6",
"k. c #BEB3A3",
"l. c #BEB7A9",
"z. c #BFB9AA",
"x. c #BFB8AA",
"c. c #BFB1B1",
"v. c #C89F97",
"b. c #CAA39C",
"n. c #C9ABA8",
"m. c #C0BBAD",
"M. c #C0BBAD",
"N. c #D1B0AD",
"B. c #CAB7B6",
"V. c #C4BCB2",
"C. c #C1B8B8",
"Z. c #CDBDBC",
"A. c #D3B6B1",
"S. c #D9BEBB",
"D. c #DAC1BD",
"F. c #CCC6C5",
"G. c #DAC6C3",
"H. c #D6CAC9",
"J. c #D8CFCE",
"K. c #DAC8C6",
"L. c #DED2CF",
"P. c #D7D1D1",
"I. c #DED4D4",
"U. c #E6D5D3",
"Y. c #E0D8D7",
"T. c #E3DDDC",
"R. c #E8DAD8",
"E. c #E6E0E0",
"W. c #ECE6E4",
"Q. c #ECE9E7",
"!. c #EEECEC",
"~. c #F1EDED",
"^. c #F0E6E5",
"/. c #F7F0EF",
"(. c #F5F3F3",
"). c #F8F7F7",
"_. c #FFFFFF",
/* pixels */
"9.1 1 t t t t t t t t t t t t t t t t t t t t t t t t t t t m.m.m.m.t t t t t t t t t t t t t t t t t t t t t t t t M B B B m.9.",
"1 1 1 ( ( ( ( ( ( ( Z Z Z Z Z t t t t t t t M t t Z Z Z t Z Z m.m.t [ [ [ [ t t t t t t t t t t t t t t t ( t M ( B B B t t : 9.",
"1 ( ( ( ( ( ( ( ` Z ( ( Z U U U ( ( ( ( ( ( ( ( Z Z Z W Z Z Z m.t [ ( ( ( ( ( ( [ ( ( ( ( ( ( ( ( ( ( t ( ( ( ! ( T N t t t 1 m.",
": ( ( ( ( ( ( ( ` ` ( ` ( Z ( ( ( ( ( ( ( ( ( ( ( Z ( ( ( Z Z m.t [ ( ( [ ( ( ( ( ( ( ( [ U ! ! W ( ( ( ( ( ( B ( ! N N B t 1 m.",
": ( ( ( ( ( Z ( ` ` ` ` Z ( Z Z Z Z ( ( ( W U U W U U W Z Z Z m.t ( ( ( ( ( ( ( ( ( ( ( ( ( ( ( W U B ! ( ( ( ( ( W N B B t t j.",
": W W W U Z Z Z ( ( Z ( Z Z Z Z W Z Z W W ( W U U U U U Z t Z m.t ( ( ( ( B W ! ( ( ( ( ! ! ( U ! ( B ( ( B W W U ! U ! N t t x.",
": W B B B B B B B B A A A A A Z Z Z Z Z Z W U U U U t Z Z t Z m.t ( ( B ( B B ( ( B B ( B ( B B B T B B B B B B B B B B B U B k.",
"- K v v L v v v v v v B B B r B B B B B A A A A A Z t t t t t m.t W U U ( B ( B B B ( B B B B B B B B B B B B B B B M M M B N s.",
"- v v v v v 8 v v 8 v v v q q q q v v v L B B r B B t t t t t M.t U M W B B ( B B B B B B B B B r r r B M M M M M c z z z z z 3.",
"= x x x x x 8 8 8 8 8 v v v v 8 v 8 v v q q q v q q q q q r t x.t T M M M M M M M M M M W M M r 8 8 z 8 z z z z z z K w w w w 3.",
"= 8 x x x x x x 8 8 8 8 x x x x 8 8 8 8 8 8 8 8 8 8 8 - 8 8 q x.t S z 8 z 8 z z z z z z z z 8 8 8 4 4 4 4 4 4 4 4 w w 4 w 9 * 2.",
"= 4 x 4 4 x 4 8 8 8 8 8 8 x 8 8 8 8 8 8 8 8 8 8 8 8 8 = = 8 - j.q x z 8 8 8 z 4 4 4 w w w w 4 4 4 4 4 4 = 4 4 3 3 3 8 3 8 3 -.2.",
"= 4 4 4 z z 4 8 4 4 4 4 x 4 4 4 = = = 4 4 4 4 4 4 4 4 4 4 = = j.4 w w 4 w 4 4 4 4 4 4 9 9 4 3 3 3 3 * * < * * < < < < < < 2 3 3.",
"= 4 4 z 4 4 4 4 4 4 = = = = = = = = = = = 4 4 4 4 8 8 8 8 - - x.8 8 8 9 3 8 4 3 3 3 < < < < < $ < $ $ $ : # # : : : : : < : $ 3.",
"p.,.4 4 4 = = = = = = = = = = ,.@ @ > u - - - o o - - = = = ,.f ,.8 q 4 4 4 4 3 < 3 3 3 3 3 3 3 = . . = = = . = 4 4 4 4 3 * = ;.",
"9.9.9.9.9.9.m.m.m.l.l.x.m.m.m.9.9.9.9.9.9.9.9.m.m.m.9.9.9.9.j j j 9.m.x.x.m.9.9.9.9.9.m.m.m.m.m.m.m.m.m.m.m.m.m.m.m.m.m.+ + 9.7.",
"t t t t t 1 + i 9.t t t t t t t t t t t t t t t t t t t t ( ( ( t t t B t t t 9.t t ( ( t t t t ( ( ( ( t t t t t t t t ( ( t t ",
"( ( ( t t t t + 9.t t [ [ [ ( ( ( ( ( ( ( ( ( ( ( ( ( ( ( ( ( ( ( ( ( B ( B t 9.t ( ( ( ( ( t ( ( ( ( ( ( ( t ( ( ( ( [ ( ( ( ( ",
"( ( ( ( ( t t t 9.t ( ( ( [ ( ( ( ( ( ( ( ( ( ( ( [ ( ( ( ( ( ( ( ( ( [ ( B t 9.t ( ( [ ( ( t ( ( ( ( ( ( ( ( ( ( ( ( [ [ ( ( ( ",
"( ( ( ( ( ( t t 7.t ( [ [ ( ( ( [ [ ( ( B B ( ( ( ( ( ( ( ( ( ( ( ( ( ( [ ( B j t ( ( [ [ ( ( ( ( Z ( ( ( ( ( ( ( ( ( ( ( ( ( ( ",
"W Z Z Z ( ( t t m.t ( ( ( B ( ( ( ( ( B B ( ( ( ( o.n.I.~.)._.).).~.^.U.S.e.s j t ( ( ( ( ( [ ( ( ( ( Z Z ( ( ( ( ( ( ( ( ( ( ( ",
"A A A A A W W t M.W W W B B W ( W B B B B B B H B.)._._._._._._._._._._._._.Z.j t ( ( ( ( ( ( ( ( ( ( ( ( Z ( ! ( ( W W W W W W ",
"v v v A A A W r x.W W W L L L L W B B B B B H I._._._._._._._._._._._._._._.Z.j t W ( W W W W W Z Z Z Z Z Z U T U U U U U U U A ",
"v v v v v v L 8 l.L L L c K c L c c c c c c B._._._._.I.u.&.| y O.q.N.R._._.Z.h t L L v v v v v v v v v v v K K v v v L K v v v ",
"x x x x x x x 8 j.8 K K z K z K z z z 8 8 G )._._._.t.8 8 8 8 8 z z z K X.Z.c.g t K v x x x x x x x x x x x x x x x x x x x 8 x ",
"x 4 x x x x x 8 j.4 w D D w w K w w w 8 w 0._._._.P.8 8 w 8 8 8 w w w K w w 4 f v x x x x x x x x x K x x x x x x x x x x x 4 x ",
"z z z z z z 3 4 k.4 w w w w w w w w 4 4 4 h._._._.g.4 4 4 4 4 4 w w w w w w 4 3.w z z z z 4 z z z z z z z 4 z z z z 4 z z z 4 4 ",
"< l l l l l < 3 4.6 3 3 3 3 3 3 3 3 3 6 3 g._._._.C.3 3 3 3 3 3 < < 6 6 < < < 1.8 < < < < < < < < < < l < < l l l l l < < < < < ",
": 7 7 7 7 7 : : O 6 < < < # # # < < < < < t._._._.~.s 6 6 6 : : : : : 6 : : : ,.4 : : : : : : : : : : - : : : : : : : 7 7 7 : : ",
"- 7 7 7 6 6 - - O X - # # - # - - - # - - d _._._._.!.t., = = = = = = = = # # ,.3 = = = = = = # = # # = = = = = = = 6 = 6 = = = ",
"1 z z z 3 < < r.g X X #     - - # # - : : : P._._._._._.).P.f.%.4 4 4 4 4 = a.6.4.8 r r r : : - 4 * $ - # - : 1 : : - - - - - - ",
"x.9.7.9.9.9.j j j j 9.9.9.9.9.x.x.l.x.l.l.l.V.(._._._._._._._._.).Q.L.V.m.m.m.7.7.7.m.m.m.m.j m.m.m.m.m.m.m.m.m.m.m.m.m.m.m.x.x.",
"t t t t t t t t t t t t t t t t t t t t t J t V.W._._._._._._._._._._.).F...t t t t t t t t t t t t t t t i j 9.9.t t t t t t t ",
"( ( ( ( [ [ [ [ [ ( ( ( ( ( ( ( ( t t J J J t t m.$.Z.Q._._._._._._._._._.~.>.t ' ' } } ' ' ' ' ' ' ' t t 1 i 9.t t ( ( t ( ( ( ",
"( ( ( ( ( ( ( ( ( ( ( ( ( ( ( ( ( ( ( t J J t t m.t t ' +.b.G.W._._._._._._.~.] } ' ' } } ' ' ' ' ' ' ' ' ' 1 9.t ( t ( ( ( [ [ ",
"( ( ( ( ( ( ( ( ( ( ( ( ( ( ( ( ( t ( t t J J t m.t ' N ' ' ' ' +.A.(._._._._.n.' ' ' } ' } ' ' N N N N ' ' 1 9.t t ( ( ( ( [ [ ",
"( ( ( ( ( ( ( ( ( ( ( ( J J J ( ( t ( ( ( ( t t m.t ' ' ' ' ' ' ' ' +./._._._.U.' ' } ' ' } ' ' ' ' N N N ' t 9.t ( ( ( ( [ ( ( ",
"( J ( ( ( ( ( J ( ( J J J J J ( ( ( ( ( ( ( J t m.t ' N ' ' N N ' ' ' A._._._.W.' ' ' ' ' ' ' ' ' N N N t t t 9.t ( ( ( [ ( ( J ",
"J ( ( J ( J J J J J J J J J J ( ( ( ( ( ( ( J t i t ' ' N N N ' ' ' ' b._._._.T.' N N N N N ' ' ' N N N t t r 7.t ( W W [ W W W ",
"J J J ( J ( J J J M J J J J J J J J J J J ( J + + N ' N ' ' ' N N N N D._._._.H.N N N N N N N N N ' ' N N r r 7.r W W W W L F n ",
"M J J J J J J M J J M M M J J J J J J J J G.K.k j N ' ' N N N N N N w.)._._._.0.N N r N N N N N c c c N e q r 6.8 L L K w w w n ",
"M M J J J J M M M J M J J J M J J J J J J L._._.(.H.h.<.@.| | &.u.J._._._._.Y.N N N r N r q e e e P e e e e q l.8 8 K n w K w K ",
"w M M M J M M M M M M t M M J M M M J J J L._._._._._._._._._._._._._._._.E...e e e q e q e e e e e e P e e q j.8 8 K w w w w w ",
"w w w w w M M M r t t t t M M J M J M M J L._._._._._._._._._._._._._.).B.G P w q q w q 0 0 0 0 w w w w w 0 0 j.4 D D 9 8 4 8 8 ",
"9 w w w w w K w 8 8 8 8 8 w w w w n w w w  .<.f.F.T.Q.~.)._._.).Q.J.f. .w w K w 0 w w 4 4 q 4 q q q q q q 4 = k.i.D 4 8 4 4 8 8 ",
"8 8 8 8 8 8 8 8 4 = = 4 4 4 4 4 9 9 4 9 8 8 4 = ,.4 4 4 4 4 4 4 4 4 4 3 3 3 3 3 3 3 3 3 * 3 3 q 3 3 3 3 3 * * 3.< m < < < < 6 6 ",
"2 2 2 2 2 2 2 < $ * * < < < < 3 3 3 3 3 3 3 * < -.* * 1 1 1 2 1 1 1 1 1 1 1 1 1 1 ; ; ; & % ; ; ; ; ; ; %   =.3.: : : : # : 2 2 ",
"= = 5 = = = - a a a a       # # # # # # # # # $.$.$.% % % % % % % % % % % % % % % #.#.#.#.#.% - - - - -     =.3.*.: - # # - - - ",
"k.k.k.s.s.3.3.3.3.,.;.;.,.,.2.3.3.s.s.s.d.s.s.2.s.s.s.s.k.j.M.M.M.x.x.x.l.l.x.x.x.6.5.4.3.3.3.3.f j.h x.x.6.6.7.6.6.6.x.5.j.l.l.",
"t t t t t t 1 1 t ( ( ( ( ( ( t m.1 1 t t t t t t t t t t t t t t t t t t t t t t t t t t t t j j j + 1 t t t t t t t t t t t t ",
"J J J J J J t ( ( ( ( ( ( ( ( t m.1 1 t ( t ( ( ( ( ( ( ( ( ( t ( ( ( ( ( ( ( ( ( M t M M M t j j + 1 t t t t t ( ( ( ( ( ( t J ",
"J J J J ( J ( J ( ( ( ( [ ( ( t m.1 t ( ( ( ( ( ( ( ( ( ( ( ( ( ( ( ( ( ( ( ( ( ( ( ( ( M M M j j t t ( ( ( ( ( ( ( ( J ( W W W ",
"( ( ( ( J ( ( ( ( ( J ( ( ( ( t m.1 t ( ( ( M [ ( ( M ( ( ( ( ( ( ( ( ( ( ( M ( M ( ( ( ( ( M j m.t ( ( ( ( [ ( J W W W W W L L ",
"( ( ( J ( J ( ( ( J ( J ( ( ( t 9.t t t ( ( M ( ( M ( ( ( ( ( ( ( ( ( ( ( M M M M ( ( ( ( ( M 7.7.t ( ( ( W W J W W n n n L n K ",
"( ( ( J ( J J J ( J ( J J J ( 9.9.t t t M ( M ( M M M M M M M M M M M M M ( M ( M ( ( ( ( ( t t 6.r W W W W L L n n n n n n n K ",
"( ( ( J J J M M M J J J J J ( t 9.t t ( M M M ( ( M ( M M M M M M M M M M ( M M M M ( M ( W W r 5.r L L L n L n n n n n n K K b ",
"( M J J M M J J M J J J J J J t j t t M M M M M M M M M M M M M M M M M M M W W W M M M z L L 8 3.8 K K K K n n b w w b D b D D ",
"M M M M F M M M M M J J J J J r h r M M M M M M M r M r M M M M M M z z w w w w w w w w w K K 4 1.4 w w 9 b 8 8 b 8 b b 8 D D D ",
"w w w w w w w w n n n w n n n 8 f 8 w w w w w 8 8 8 8 8 8 K w w w w 8 w 4 w w w w w 9 9 8 D D = :.4 8 8 x 8 8 8 6 6 8 8 6 6 6 6 ",
"w 4 w w w w w w b b b b b b 4 4 1.= w w w w w 4 w 4 4 4 4 4 4 4 4 4 8 4 8 8 4 8 8 8 8 8 8 m 3 * -.< 2 2 2 2 < 2 2 2 2 2 < 2 2 2 ",
"4 4 8 8 D 8 9 9 8 8 b b 4 4 4 4 ,.= 4 8 8 4 4 4 4 4 4 4 3 3 < 3 3 3 3 3 < 6 2 2 < 2 2 2 < : : : *.: # : : : 5 5 m 5 2 : : : : : ",
"* 3 3 3 3 3 4 8 x x 3 3 x 2 3 3 ;.* * 3 3 3 3 3 < < < < * < < < < : : : : : : 5 2 : - - - # # a #.# - - - - 5 - - - - - - # # # ",
"* * * * * * * *       * * * $ =.=.=.$ $ : : : : : : : # : - - - - - #   # # - - - = = # # # # p p # # $ $ $ $ $ # $ $ # # # # # ",
"k.k.s.s.a.p.p.p.p.p.p.p.p.p.p.p.p.a.a.a.s.s.s.s.s.s.s.s.s.s.s.a.a.a.a.a.s.s.s.s.s.p.p.y.y.y.y.p.a.s.a.p.p.p.p.p.p.p.p.a.s.s.a.p."
};
