/* XPM */
static char *_18c1fd85bd74ff9e32a7d0394eae2cf5XwRqa3Ba2ARAILU[] = {
/* columns rows colors chars-per-pixel */
"64 64 250 2 ",
"   c #2C1915",
".  c #391B17",
"X  c #3A221B",
"o  c #23231A",
"O  c #373029",
"+  c #441D1C",
"@  c #4C1C1C",
"#  c #451B15",
"$  c #531D1C",
"%  c #5B1D1A",
"&  c #4B231D",
"*  c #44221B",
"=  c #54231E",
"-  c #5A251D",
";  c #67271C",
":  c #75291C",
">  c #7B3117",
",  c #491C22",
"<  c #571E22",
"1  c #661E22",
"2  c #452322",
"3  c #4C2423",
"4  c #482928",
"5  c #542423",
"6  c #5B2423",
"7  c #542A25",
"8  c #5C2A25",
"9  c #5D252A",
"0  c #5D2B2A",
"q  c #54292A",
"w  c #58312B",
"e  c #493734",
"r  c #4F2E31",
"t  c #632424",
"y  c #6B2524",
"u  c #642A25",
"i  c #6C2B24",
"p  c #62252A",
"a  c #6C2629",
"s  c #642B2B",
"d  c #6C2C2B",
"f  c #742B25",
"g  c #7B2C24",
"h  c #74252A",
"j  c #732C2B",
"k  c #7B2D2B",
"l  c #772624",
"z  c #64332B",
"x  c #6C332D",
"c  c #693527",
"v  c #733226",
"b  c #7C3325",
"n  c #74322C",
"m  c #7C332D",
"M  c #74392C",
"N  c #7C3A2C",
"B  c #7A3A25",
"V  c #652D32",
"C  c #6C2C33",
"Z  c #742E32",
"A  c #7C2E32",
"S  c #782B38",
"D  c #6D3233",
"F  c #673735",
"G  c #743333",
"H  c #7B3433",
"J  c #753A32",
"K  c #7D3A33",
"L  c #7C353A",
"P  c #73393A",
"I  c #76383A",
"U  c #631C1A",
"Y  c #4A413B",
"T  c #7E412A",
"R  c #7A4237",
"E  c #7A3641",
"W  c #6D3E44",
"Q  c #5F3C42",
"!  c #524D4B",
"~  c #7A4744",
"^  c #6A4A49",
"/  c #676E5C",
"(  c #766B67",
")  c #6B786A",
"_  c #75726A",
"`  c #747672",
"'  c #6C6F6B",
"]  c #5B756A",
"[  c #87331D",
"{  c #872B17",
"}  c #812B23",
"|  c #842D2B",
" . c #892D26",
".. c #833225",
"X. c #8C3425",
"o. c #843924",
"O. c #83342C",
"+. c #8B342C",
"@. c #833B2D",
"#. c #8C3A2D",
"$. c #8B3B26",
"%. c #933425",
"&. c #92352C",
"*. c #933B2C",
"=. c #9B3D2B",
"-. c #993729",
";. c #842E36",
":. c #833532",
">. c #8C3533",
",. c #843A34",
"<. c #8B3B33",
"1. c #843C3A",
"2. c #8B3C3A",
"3. c #87343B",
"4. c #933B32",
"5. c #9A3C34",
"6. c #943937",
"7. c #902F29",
"8. c #A73D2A",
"9. c #A63D36",
"0. c #B43C31",
"q. c #A6471D",
"w. c #89412B",
"e. c #95412D",
"r. c #9C432C",
"t. c #9B4728",
"y. c #884337",
"u. c #944233",
"i. c #9C4433",
"p. c #94423A",
"a. c #9D4439",
"s. c #9E4A3C",
"d. c #994A36",
"f. c #9C5339",
"g. c #A34426",
"h. c #A4432D",
"j. c #AB452D",
"k. c #A54A2D",
"l. c #AB4A2D",
"z. c #AD4724",
"x. c #B14B2E",
"c. c #B4462A",
"v. c #A5522A",
"b. c #B2512B",
"n. c #A44533",
"m. c #AB4533",
"M. c #A44A34",
"N. c #AB4A33",
"B. c #A3453B",
"V. c #AB453C",
"C. c #A44B3B",
"Z. c #AB4B3A",
"A. c #B14533",
"S. c #B24B34",
"D. c #B24D3A",
"F. c #B84837",
"G. c #AB5333",
"H. c #A4523B",
"J. c #AB513B",
"K. c #A35234",
"L. c #B4523B",
"P. c #BA533C",
"I. c #B65334",
"U. c #C2543C",
"Y. c #C14E3C",
"T. c #903D43",
"R. c #994944",
"E. c #8C5757",
"W. c #8E4C49",
"Q. c #A74942",
"!. c #A85544",
"~. c #B95644",
"^. c #B3514C",
"/. c #AF6957",
"(. c #886B6A",
"). c #8B746A",
"_. c #8C7974",
"`. c #987979",
"'. c #976C6B",
"]. c #AC746E",
"[. c #926060",
"{. c #C65845",
"}. c #C45856",
"|. c #C96950",
" X c #C26F64",
".X c #8C887A",
"XX c #95867D",
"oX c #B88476",
"OX c #CA8E7C",
"+X c #957F81",
"@X c #968B84",
"#X c #8D9685",
"$X c #9C948B",
"%X c #97978B",
"&X c #999893",
"*X c #918D8B",
"=X c #A58885",
"-X c #A4978B",
";X c #A49995",
":X c #B99793",
">X c #B78C8D",
",X c #96A392",
"<X c #BCA59B",
"1X c #BCAB9C",
"2X c #B7A597",
"3X c #B9AB95",
"4X c #909AA1",
"5X c #BDABA2",
"6X c #B9A9A7",
"7X c #BDB4A4",
"8X c #BCB5AB",
"9X c #BDBAAC",
"0X c #B8BBA7",
"qX c #BEBDB0",
"wX c #ABB2AA",
"eX c #C79A94",
"rX c #CF9389",
"tX c #C2A89C",
"yX c #D6A498",
"uX c #C7B59F",
"iX c #C8ABA5",
"pX c #C2B3A5",
"aX c #C3B4AA",
"sX c #C3BAAC",
"dX c #C8B8A9",
"fX c #C4BDB2",
"gX c #C9BAB5",
"hX c #D4B3AE",
"jX c #E2B3AA",
"kX c #B8C3B0",
"lX c #CCC3B5",
"zX c #E3CAB9",
"xX c #DFBFCC",
"cX c #DBD5CB",
"vX c #D6CBC5",
"bX c #E6D8D4",
"nX c #EED4D0",
"mX c #F8E4DB",
"MX c #ECE4D3",
"NX c #EAE5E5",
"BX c #F6E9E7",
"VX c #FBF7EB",
"CX c #ECFDFB",
"ZX c #F4FDF5",
"AX c #FEFDF4",
"SX c #FFF6FD",
"DX c #F5FEFD",
"FX c #FDFDFD",
"GX c #FFF6F6",
"HX c #EFF6E7",
/* pixels */
"&Xu 9 L O.A k b O.m m ,.k 1.H m K m m m m m H n k I H M H :.uXfXkXdXn P v ..C :.L j G L G G G L H G G G n m n L k K :.2.,.1.hX&X",
"e ; ; d.C.R.!.d.C.a.#.p.<.<.2.O.H H H L H H L H N T.2.y.k >.y.qXfXD }.{.{.F.T.i H H H H f H H n k H G L ,.R.:.H Q.2.2.:.m H F #X",
"8 J.n.L.x.m.N.g.Z.h.Z.n.=.i.a.B.Z.M.Z.N.h.j.N.Z.*.>.u.N.5.4.O.gXl }.8.i.k.x.Q.Y.L.Z.j.N.S.N.N.N.S.M.C.{ h.l.D.n.h.C.+.O.n j 5 lX",
"t S.N.z.z.D.j.L.g.j.j.D.h.=.J.M.M.n.M.N.k.l.l.l.S.o.M.F.n.4.p.aXB P.F.S.{.x.n.q.S.m.h.N.~.g.m.N.h.Z.C.C.Z.N.h.-.l.M.4.O.K 1.6 8X",
"t j.Z.l.z.Z.%.M.L.j.N.Z.=.M.*.*.5.5.B.Z.Z.Z.m.8.N.n.S.j.#.4.@.9XG N.I.k.q.N.B.L.g.S.S.N.D.N.N.N.m.Z.X.M.M.h.Z.n.l.r.*.2.1.H G 7X",
"6 Z.a.M.h.p.4.e.n.Z.*.B.*.*.4.#.=.=.=.h.j.N.N.j.g.^.w.m.4.M 2.lXP D.n.N.Z.&.Q.n.N.l.g.N.h.L.h.n.j.Z.*.n.Z.%.Z.M.n.!.4.a.,.l I dX",
"6 M.4.#.=.:.<.#.#.*.*.4.#.<.O.p.p.#.#.#.e.i.d.d.h.Q.M 5.T.z y.pXm z.Z.*.i.2.%.l.s.#.<.p.2.R.:.2.<.R.:.W.O.O.:.2.+.@.p.#.<.R.J pX",
"- h.&.#.M.>.+.#.<.4.#.#.p.O.O.O.4.#.*.4.4.*.4.*.$.6.m n A L v dXD A.h.g.N.,.C.#.*.X.!.+.#.4.#.+.*.+.y.b <.#.<.O.2.:.O.+.#.O.y.1X",
"% y.+.%.X.#.k 1.,.k ,.2.O.m j G } +.u.*.p.4.>.k <.4.m z G A D sXm n.6.B.X.2.n.#.2.:.#.O.4.#.2.H G L n :.:.,.O.,.O.+.O.N O. .L XX",
"6 H @.#.4.@.f i k h l 6.4.+.6.l K O.+.+.m i m 2.v O.h G h 3.D 7Xn a.m @.y.L ..N 2.:.>.#.4.+.:.m j k :.k ,.O.:.O.m | p.v m | I XX",
"6 Z 2.+.+.<.2.T.d L j l <.+.} p.j j n m m a d D J y j t L h P sXm B.,.f n H >.,.H m m m @.m n x a Z j d d j f j u j K c j H @ #X",
"< D :.g : m f y d s D i f @.v i Z D s u j k Z d j G x 5 6 G 5 pXj | k n n d ;.f h k m m O.k j d d D 8 0 6 s t d d f f % Z y '.XX",
"5 x i f m y.i i j A a H H f j j & $ 6 d G j j A j h d s u 6 7 dXx :.N i x s j u y a x n j n d 9 d 6 5 @ q @ 6 p 8 - - x u u w @X",
"= D a :.k y ; G u z 5 @ 5 7 3 2 4 4 2 5 6 d d d Z d Z Z j p w aXG h f f j j S t s s u t t t 6 5 8 @ + @ 7 @ $ 6 6 u 8 6 6 5 2 XX",
"tX`.V s s 8 7 @ u 8 5 , 0 @ q =Xe e O e 4 0 3 X * 4 & s 9 + @X/ `.E z G V 8 C 7 V p 8 s d d s z 2 2 . 4 2 4 . 4 D p V 9 V 5 q `.",
"%X&X$X;X-X-XfX9X9X8X9XfX9XsX9X%X&X&X&X;X$X$X;X8XsXqX%X$X$X&X' ` ) ;XdXaXaX7X;X%X$X%X&X8XsXsX7XsX9X9XsXsXfX8X9X9XdXfX8XfXO O &X&X",
"O.j L G P 3 e Y ;XM F h P b Z G L P G k :.G G m H n | m ..k.t.F.c E P -.k I Z &XF | B.Z.b C :.j C.m.q.Z.z O.F G L k k +.i.s.2.j ",
"M.Q.Q.g m H F 4 4Xv  .}.mXFXFXFXFXFXZXFXFXDXnXQ.C.H.Z.B.M.I.N. XAXFXAX/.!.:.;.%XB k.j.S.OXFXFXFXSXFXDXSXFXV.} V.n.M.Z.P.P.N.n.B.",
"F.l.M.m.m.<.n I %Xv x.V.nXFXGXSXZXFXFXFXSXZXMXD.A.I.S.m.J.j.m.yXSXFXZXdXn.a.A #Xm N.A.{.rXAXVXGXAXCXFXSXGXD.G.b.A.S.D.P.I.c.j.S.",
"k.j.S.k.N.m.| G -Xx S.{.|.!.!.nXFXDXGXeXR.R.H.x.S.x.M.m.C.m.V.MXSXFXFXMX~.n.T./ S Z.Z.U.~.!.!. XFXVX~.H.L.z.h.R.S.j.n.Z.S.N.j.N.",
"V.*.$.8.m.M.O.A aXE A.9.i.$.k.yXFXFXAXiX>.A.j.N.i.*.#.4.#.&.Q.ZXFXAXGXAX~.X.;.' G Z.k.k.S.m.{.rXSXzX0.w.*.H.S.j.l.Z.C.M.m.N.Z.Z.",
">.6.4...*.Z.s.n dXQ.q.G.w.#.m. XFXSXFXHXM #.y.@.p.@.,.2.:.#.].DXFXAXSXDXoX@.T.` H x.g.g.A.F.M.cXFX>XP.l.n.&.d.C.j.Z.N.j.z.j.m.n.",
"4.>.<.4.5.#.p.| 0Xz.z.z.n.0.Z.k.CXFXDXFX[.+.2.O.>.N O.,.,.,.hXFXHXDXFXDXhXX.+.` H g.N.Z.F.8.f.AXAXf.w.*.5.6.k.j.n.n.h.h.j.j.h.*.",
"%.*.#.+.&.&.Q.l 0X0.Q.B.N k.O.m.jXGXFXGXeX2.b #.+.@.+.,.2.K mXSX>XSXSXSXVXB.$.' ;.g.t.$.#.y.].SXNX6.6.@.-.w.t.9.#.*.*.r.r.=.#.,.",
"+.@.#.O.@.>.>.M 0Xn 9.u.%.A.> m.].ZXSXFXvXH m m c :.a n m E.FXZX2.cXFXDXFX[.C ( v 5.5.+.X.2.iXFXyX@.-.%.>.2.O.#.+.*.+.X.#.+.f ,.",
">.: +.4.+.>.| f sXl b i.m.b b 5.W.ZXFXFXVX~ f m m h Z j j :XGXvX6.:XFXFXGXeXG / <.>.>.O.7.:.mXDX].<.*.%.+.>.+.[  .O.+.O.>.m l m ",
"m m O.g +.>.i d 8Xt ,.m g n M | j bXFXFXFX'.j i i d G i z bXAX=Xl '.GXSXFXcXC #Xf :.m O.,.~ FXFXR N ..O.m f O.$.,.@.; O.v ,.; s ",
"u O.b b &.k $ d @XH 1 u t t d 8 y :XDXFXDXiXa i y d 1 y F GXGXE.8 8 ZXGXDXDXV @XH y U f t XXFXxXt y ; j y y f | l f | i l t 1 s ",
"- k g : : f 8 6 O C 1 0 0 < . * t E.FXFXFXMX1 s t 0 d G (.FXNX5 = 0 gXFXDXDX`.XXt 8 7 6 6 vXFX$X5 5 8 0 5 s s - u y ; j x L 8 6 ",
"t k l l l n 6 < O o 9 . . 9 X t 8 q BXFXFXFX~ 0 6 5 < $ 5XFX6X= 6 6 '.GXZXFX6X@XV & 7 $ V BXFXQ 0 + + 3 @ q 5 < $ @ Z 5 a $ 9 7 ",
"d j ;.3.d < p >X] O o X .   5 7 X . fXFXFXFX=X7 p 9 p D mXSX`.u F 0 ^ FXFXFXGX%X=XV G E [.FXBXp z @ @ q 5 6 9 V 0 6 8 1 6 p 8 5 ",
"9X%X-X-X#X,X' ` ` (.;X;X%X;X=XkXaXgXcXFXDXFXBXiX7X9XsXlXZXDXgX0X7XhX8XZXFXFXFXwX%X;XsXpXmXDXkXsXsXsX9XfXsXdXsXsX9X8XsXsXdXsXsX9X",
"H G G G H H H n H G G G G G G H k B W.DXFXFXSXfX9Xs p -XFXnXJ J m :.x 5XFXFXAX:Xx H @.J NXDX].,.m m J I P Y ) -X>Xx M M G H k H ",
"A.A.S.F.P.{.{.{.P.F.S.A.S.S.A.A.Q.: >.mXFXSXSX).sXs I cXFX>XN o.!.N.w.'.ZXFXDXbXG.K.U. XAXVX~.k.K.L.H.@.m w ! 4XI v Z.H...m.M.Z.",
"l.l.l.l.l.l.l.l.l.l.k.l.N.N.l.l.D.s.Q.eXDXSXFXiXfXn K FXVX/.K.G.v.S.K.Q.VXFXDXFX|.G.U.rXAXnXM.G.t.S.N.v.b.N.7 ;XG Q.{ Z.m.l.{.I.",
"Z.Z.Z.Z.Z.Z.Z.M.N.Z.Z.Z.Z.C.Z.Z.k.b V./.CXSXZXBX8XJ OXFXBXk.G.l.k.G.L.L.zXAXFXAXOXK.D.vXCXjXM.H.y.,.1.B G.G.; $XI g L.n.Z.x.I.{.",
"j.j.j.x.S.S.N.N.N.N.N.m.n.h.h.N.G.: m.!.HXFXDXSXlXJ jXFXhXI.f.K.G.K.F.{.OXAXFXAXzXb.~.DXFX Xz.N.c.n.@.w.[ H.c -XG R.8.Z.J.{.h.Z.",
"M.M.N.l.k.k.h.r.N.n.n.i.r.r.r.M.m.H.A.n.nXFXAXSXcXM mXFXrXk.#.o.z.v.c.b./.FXFXDXVXM./.DXBXl.b.I.G.T R R J I W &XK m.b.j.P.l.F.r.",
"n.n.m.Z.m.n.n.i.n.i.5.i.i.i.n.Z.V.Z.N.Q.rXAXSXSXvXE.FXGXu.[ <.!.G.!.J.v.H.NXFXFXFX/.tXDXhXw.K.H.f.w.@.y.v | n -Xk h.c.j.~.F.g.m.",
"r.i.n.k.k.n.i.i.e.*.*.i.i.i.r.r.a.t.t.a.!.AXSXFXDXrXDXbXk.H.!.$.>.L w.v.G.iXFXVXSXeXbXSX].R ,.$.#.C.D.#.K 3.I #XZ B.j.m.n.M.=.d.",
":.u.i.h.h.i.5.>.u.d.@.O.@.u.e.i.n.i.=.i.9.MXZXFXFXCXVXyX#.y.R @.,.w.Q.y.J./.CXFXGXNXFXGXW.K m 2.N <.,.N J L Z %XZ Z.A.e...:.> 5.",
":.>.u.e.i.a.O.:.&.5.+.R.5.B.-.=.i.d.i.n.a.iXAXFXSXDXGX].s.,.,.<.K @.+.T ..y.FXDXFXDXDXcXG M R N N R.b N N 1.j 0XD ; j.w.H 9.N 9.",
"m O.:.@.y.2.b m ,.m ,.m ,.m <.#.b *.e.e.4.].FXFXFXCXVXK w.T N B y.,.@.B ,.1.zXDXDXFXDX:XH m n ,.@.#.@.d.N m K 7XG l 8.,.Z } F } ",
"m m m m m m ,.:.j m H H j ,.2.2.,.5.@.$.u.R.BXFXSXDXhX:.N m +.@.b 3.N B n O.yXDXFXSXGXE.i m c n v m b O.m i d sXy 9.r.f Z ; G d ",
"n m j H k m p.O.G G Z L j H m O.H 6.m g O.>.vXFXSXAX`.:.,.m Q.m m A c B J H !.ZXDXFXBXs z J u i G J n :.n z 6 1XeX9.; f k s  .A ",
"i v i m j k ,.: 0 $ 6 t x i a i d k f M n 1 =XFXSXAXF D s ; f s i a x ; z i f mXFXAXpXx = 6 d :.t D s y 0 2 5 @Xz X.u ; t 0 : d ",
"u u i y t u s 0 3 3 3 0 9 s t a 8 d s 7 s V + r `.2 @ p V z i s 8 u 8 9 7 8 9 q p 0 u s + 4 0 - d = 0 s +   (.%X$ f t q 5 = z s ",
"$ 6 s % 6 7 2 ^ ! ! !   .   2 X * # @ 2 @ * + '.( ).& 2 + * * , 2 # , , & . q + + ( (.(._.( $ 6 6 0 & 0 .   _.*X).9 = 2 , - < t ",
"pXpXpX5X5X@X$X@X@X+X_._..X.XXX4XXX8XtXiX1X8X<X@X7X5X1X5X1XtXdXsXsXpXpXaXpX7XsX9XgX%X$X$X#X.X@X*X( 8X_ 8X8X$X%X%X&X@X-XaX@XsXfX8X",
"M G n K n n t s > !.Z.A.V.S.Y.l dX9 = E k D K G m G L L H K G D G G H H H n G j G J H S S H D (.) ) O q I G Z S G n M m m n d J ",
"B.i.a.a.i.a.&.i.Z.m.t.k.H.t.x.m sXd - | m.g Z.B.g.L.h.Z.M.n.C.$.M.N.N.N.l.S.S.Z.Q.o.g T.1.:.G _ _ r 3 n m O.f m Z.!.n.Z.Z.M.X.i.",
"i.r.i.r.n.h.r.h.V.0.P.F.^.Z.Z.P 9X5 c V.k.H.j.J.S.N.n.Z.h.L.M.n.S.S.N.N.j.N.h.Z.Z.h.M.s...&.y._ (.P >.9.m.D.Z.M.h.h.Z.h.N.h.h.r.",
"m.Z.h.N.m.m.N.N.K.n.k.j.D.z.x.d gX8 n D.n.D.%.D.m.Z.%.Z.N.j.P.m.j.j.j.F.N.n.-.a.X.D.c.A.A.A.H ` 8Xx n.S.F.8.{.l.j.h.S.m.h.N.N.n.",
"N.L.N.h.M.r.Z.n.A.8.M.r.n.N.A.1.$X1.H { Q.h.T F.n.*.i.M.M.S.z.N.Z.N.N.N.i.u.> <.| H.g.l.k.h.,.;X;XM Z.g.v.N.k.t.n.n.=.n.-.n.%.M.",
"N.M.M.r.C.u.s.d.!.5.C.m.a.r.f.=X&XA D ..>.C.c D.>.O.1.,.2.O.:.:.:.:.O.:.2.R.,.R.6.s.M.M.n.N. .Z &Xi A.I.g.A.0.m.r.e.u.$.d.*.-.i.",
"S.S.n.M.*.a.X.+.[ B.e.r.i.h.m.P %X:.F V.2.o.O.V.n.+.R.O.:.:.:.1.H ,.O.O.+.s.X.*.,.B B.-.Z.n.i.m *XH m.g.t.i.n.e.=.=.=.*.-.n.8.=.",
"n.X.u.p.+.X.i.e.+.p.a.e.r.-.B.| ` D k M K O.:.:.,.:.O.:.O.:.O.:.O.:.:.O.O.<.p.C.V...H H b h.B.D @Xs B.r.j.h.*.*.<.g ..4.5.=.8.8.",
"O.:.:.:.2.O.O.:.m O.4.B.9.Q.,.D ( C >.m O.>.k ,.H j K f K K ,.m m m H ,.m O.O...N v :.k b k.9.l @XC | }  .<.f m 6.O.+.+. .%.9.9.",
"L n H H ,.H :.H %.M.*.> e.o.p.m ( Z k @.>.g ,.i k A j H j 2.:.H L H n d j j k m k n H j b h.=.; `.p H ; :.j i i ; ; v n i f v : ",
"G i k g b k m f *.&.4.5.5.>.j d .X6 H n f m G x Z a d a Z j a f y a d G G n j f k f j a f X.: * ).t i c j f ; i k f f i y a d y ",
"t n m g <.O.f m b g 2.2.l f s 0 .X5 d G j a s d D s s u s s s s d a t t t a a f u u j h V u % r ).$ % 8 % 1 y y ,.j y t t 9 t 9 ",
"< p s t n i t d +.O.: : ,.; y a _.3 @ s a a d a t d t t $ s t p t 9 0 8 6 6 t t 8 - t 6 2 # 3 ! ( , 5 3 9 < V 9 8 6 5 7 5 @ + + ",
"2 + 3 2 + + 3 & X     2 2 * . _.).`.# . D = * s 6 6 s @ 6 5 0 6 7 & # . . + & 7 t = & + . . * ! ! 2 . 2 + 5 + + @ @ @ + + + + + ",
"1XpXpX1X5X2X2X2X2X2X2X1X2X<X<X2X2X2X1X1X:XpX1XtXpX1X1X1X1X5X2X1XtXtX<X5X5XiXtXtX6X2XeX:X2X2X:X<X6X<XtX2XtX2X3X2X2X1X<X2X5X5X<X2X"
};
